<svg width="218" height="79" viewBox="0 0 218 79" fill="none" xmlns="http://www.w3.org/2000/svg">
<path d="M76.52 57.32L79.36 54.08C81.52 55.8 84.4 56.92 87.44 56.92C90.96 56.92 93.08 55.32 93.08 52.96C93.08 50.96 91.92 49.44 89.36 49.12C88.08 48.96 87.08 48.8 85.6 48.6C80.68 47.92 78.04 44.72 78.04 40.6C78.04 35.72 81.44 32.28 87.32 32.28C90.84 32.28 93.96 33.52 96.56 35.24L94.16 38.8C92.08 37.48 89.64 36.6 87.12 36.6C84.48 36.6 82.36 37.96 82.36 40.68C82.36 42.28 83.52 43.88 86.4 44.32C87.16 44.44 88.24 44.6 89.6 44.76C94.92 45.4 97.4 49.08 97.4 52.96C97.4 58.2 93.52 61.24 87.4 61.24C83.2 61.24 79.52 59.96 76.52 57.32ZM107.889 36.6V45.8H114.289C117.489 45.8 119.049 43.44 119.049 41.2C119.049 39.28 118.289 38.12 117.209 37.4C116.249 36.76 115.369 36.6 114.129 36.6H107.889ZM103.569 61V32.52H113.889C116.129 32.52 118.089 32.8 120.289 34.52C122.009 35.84 123.369 38.24 123.369 41.32C123.369 45.36 120.289 49.88 114.449 49.88H107.889V61H103.569ZM133.2 36.36V45H139.72C142.96 45 144.56 42.88 144.56 40.48C144.56 39 144 37.88 143.12 37.24C142.32 36.64 141.44 36.36 139.96 36.36H133.2ZM128.88 61V32.52H140C142.4 32.52 144.28 33.08 145.8 34.4C147.4 35.76 148.64 37.92 148.64 40.48C148.64 44.16 146.56 47.16 143.12 48.36L149.72 61H144.6L138.72 48.84H133.2V61H128.88ZM154.894 61V32.52H159.214V61H154.894ZM166.806 61V32.52H170.886L183.766 52.76H183.846V32.52H188.166V61H184.086L171.206 40.76H171.126V61H166.806ZM204.99 49.4V45.32H215.11V51.12C215.11 56.76 210.63 61.24 204.95 61.24C200.47 61.24 197.39 58.6 196.03 56.12C195.11 54.44 194.79 53.6 194.79 46.76C194.79 39.92 195.11 39.08 196.03 37.4C197.39 34.92 200.47 32.28 204.95 32.28C210.35 32.28 214.07 36.08 214.95 40.72H210.39C209.71 38.52 207.67 36.6 204.95 36.6C202.91 36.6 201.43 37.56 200.55 38.68C199.43 40.12 199.11 40.92 199.11 46.76C199.11 52.6 199.43 53.4 200.55 54.84C201.43 55.96 202.91 56.92 204.95 56.92C208.23 56.92 210.79 54.44 210.79 50.88V49.4H204.99Z" fill="black"/>
<rect y="19" width="60" height="60" fill="#DB4444"/>
<ellipse cx="19.1364" cy="40.5556" rx="3.63636" ry="3.55556" fill="white"/>
<rect x="34.5908" y="38.7778" width="10.9091" height="3.55556" fill="white"/>
<path d="M17.3194 51.2222C17.3194 51.2222 16.8569 61 29.8143 61C42.7716 61 42.7719 51.2222 42.7719 51.2222" stroke="white" stroke-width="4"/>
<path d="M16.002 15.5C16.002 15.5 16.0017 2 29.502 2C43.0022 2 43.502 15.5 43.502 15.5" stroke="black" stroke-width="4"/>
</svg>
